<svg xmlns="http://www.w3.org/2000/svg" width="16" height="16" viewBox="0 0 16 16" fill="none"><g clip-path="url(#clip0_4240_37809)"><path d="M13.128 0H2.872A2.872 2.872 0 0 0 0 2.872v10.256A2.872 2.872 0 0 0 2.872 16h10.256A2.872 2.872 0 0 0 16 13.128V2.872A2.872 2.872 0 0 0 13.128 0z" fill="#4E53DF"/><path d="M13.718 7.977c-.02 0-.04 0-.06.002l-1.234.076.003-1.573A4.43 4.43 0 0 0 7.998 2.05 4.43 4.43 0 0 0 3.57 6.48l.003 1.574-1.234-.076a1.048 1.048 0 0 0-.413 2.034c.41.148 1.639.596 1.639.596l-.022.93a1.477 1.477 0 0 0 2.44 1.121 2.22 2.22 0 0 0 4.03 0 1.477 1.477 0 0 0 2.44-1.12l-.022-.93s1.229-.45 1.639-.597a1.048 1.048 0 0 0-.353-2.035zm-7.814.925V8.02a.43.43 0 1 1 .862 0v.882a.43.43 0 1 1-.862 0zm3.63 1.466a1.953 1.953 0 0 1-1.536.741c-.601 0-1.162-.27-1.537-.742a.386.386 0 1 1 .606-.481c.227.286.567.45.932.45.364 0 .704-.164.931-.45a.387.387 0 0 1 .605.482zm.123-1.035a.498.498 0 1 1 0-.997.498.498 0 0 1 0 .997z" fill="#fff"/></g><defs><clipPath id="clip0_4240_37809"><path fill="#fff" d="M0 0h16v16H0z"/></clipPath></defs></svg>
