<svg  viewBox="0 0 1024 1024" xmlns="http://www.w3.org/2000/svg" width="1024" height="1024"><path fill="currentColor" d="M823.595 227.712a738.987 738.987 0 0 0-185.174-57.045c-8.149 14.037-17.194 33.066-23.552 48a707.925 707.925 0 0 0-205.141 0c-6.357-14.934-15.915-33.963-23.595-48a728.533 728.533 0 0 0-185.258 57.045C83.669 400.682 51.968 569.6 67.84 736.213a754.773 754.773 0 0 0 226.901 113.664 552.107 552.107 0 0 0 48.47-78.336c-26.752-9.984-52.054-22.186-76.544-36.693 6.357-4.523 12.672-9.515 18.56-14.507 147.626 67.499 307.498 67.499 453.29 0 6.358 4.992 12.246 9.984 18.56 14.507-24.448 14.507-49.792 26.71-76.501 36.693a552.107 552.107 0 0 0 48.427 78.336 750.677 750.677 0 0 0 226.901-113.664c19.499-192.853-30.805-360.448-132.267-508.501zM363.52 633.429c-44.373 0-80.597-40.32-80.597-89.642 0-49.366 35.328-89.686 80.64-89.686 44.8 0 81.493 40.32 80.554 89.686 0 49.322-35.754 89.6-80.597 89.6zm297.557 0c-44.373 0-80.64-40.32-80.64-89.642 0-49.366 35.328-89.686 80.64-89.686 44.8 0 81.494 40.32 80.598 89.686 0 49.322-35.328 89.6-80.64 89.6z"/></svg>
